<svg width="18" height="18" viewBox="0 0 18 18" fill="none" xmlns="http://www.w3.org/2000/svg">
<g clip-path="url(#clip0_36_96)">
<path d="M16.23 2.72997L15.27 1.76997C15.1856 1.68471 15.0851 1.61703 14.9744 1.57083C14.8637 1.52464 14.7449 1.50085 14.625 1.50085C14.505 1.50085 14.3862 1.52464 14.2755 1.57083C14.1648 1.61703 14.0644 1.68471 13.98 1.76997L1.76997 13.98C1.68471 14.0644 1.61703 14.1648 1.57083 14.2755C1.52464 14.3862 1.50085 14.505 1.50085 14.625C1.50085 14.7449 1.52464 14.8637 1.57083 14.9744C1.61703 15.0851 1.68471 15.1856 1.76997 15.27L2.72997 16.23C2.81384 16.3162 2.91412 16.3847 3.02491 16.4314C3.13569 16.4782 3.25472 16.5023 3.37497 16.5023C3.49522 16.5023 3.61426 16.4782 3.72504 16.4314C3.83582 16.3847 3.93611 16.3162 4.01997 16.23L16.23 4.01997C16.3162 3.93611 16.3847 3.83582 16.4314 3.72504C16.4782 3.61426 16.5023 3.49522 16.5023 3.37497C16.5023 3.25472 16.4782 3.13569 16.4314 3.02491C16.3847 2.91412 16.3162 2.81384 16.23 2.72997Z" stroke="#788A87" stroke-width="1.5" stroke-linecap="round" stroke-linejoin="round"/>
<path d="M10.5 5.25L12.75 7.5" stroke="#788A87" stroke-width="1.5" stroke-linecap="round" stroke-linejoin="round"/>
<path d="M3.75 4.5V7.5" stroke="#788A87" stroke-width="1.5" stroke-linecap="round" stroke-linejoin="round"/>
<path d="M14.25 10.5V13.5" stroke="#788A87" stroke-width="1.5" stroke-linecap="round" stroke-linejoin="round"/>
<path d="M7.5 1.5V3" stroke="#788A87" stroke-width="1.5" stroke-linecap="round" stroke-linejoin="round"/>
<path d="M5.25 6H2.25" stroke="#788A87" stroke-width="1.5" stroke-linecap="round" stroke-linejoin="round"/>
<path d="M15.75 12H12.75" stroke="#788A87" stroke-width="1.5" stroke-linecap="round" stroke-linejoin="round"/>
<path d="M8.25 2.25H6.75" stroke="#788A87" stroke-width="1.5" stroke-linecap="round" stroke-linejoin="round"/>
</g>
<defs>
<clipPath id="clip0_36_96">
<rect width="18" height="18" fill="white"/>
</clipPath>
</defs>
</svg>
